<svg width="324" height="324" viewBox="0 0 324 324" fill="none" xmlns="http://www.w3.org/2000/svg">
<rect width="324" height="324" rx="162" fill="#060606"/>
<path fill-rule="evenodd" clip-rule="evenodd" d="M209.998 176.921V176.921C175.19 176.921 146.98 148.719 146.98 113.957C146.98 95.7571 132.298 81 113.986 81C95.8394 81 80.9922 95.7571 80.9922 113.957C80.9922 132.158 95.6742 146.915 113.986 146.915H114.151C148.794 146.915 176.84 175.118 177.004 209.878V210.043C177.004 228.243 191.686 243 209.998 243C228.31 243 242.992 228.243 242.992 210.043C242.827 191.678 228.145 176.921 209.998 176.921" fill="#45D5CF"/>
<path fill-rule="evenodd" clip-rule="evenodd" d="M114.142 176.921C95.9956 176.921 81.1484 191.678 81.1484 209.878C81.1484 228.079 95.8304 242.836 114.142 242.836C132.454 242.836 147.136 228.079 147.136 209.878C146.971 191.678 132.289 176.921 114.142 176.921" fill="#45D5CF"/>
<path fill-rule="evenodd" clip-rule="evenodd" d="M210.017 81C228.24 81 243.011 95.7553 243.011 113.957C243.011 132.159 228.24 146.915 210.017 146.915C191.795 146.915 177.023 132.159 177.023 113.957C177.023 95.7553 191.795 81 210.017 81" fill="#45D5CF"/>
</svg>
