<svg id="Layer_1" data-name="Layer 1" xmlns="http://www.w3.org/2000/svg" viewBox="0 0 500 500"><defs><style>.cls-1{fill:#2a313e;}.cls-2{fill:#a9e2b0;}</style></defs><rect class="cls-1" x="27.78" y="122.92" width="27.78" height="55.56"/><path class="cls-2" d="M430.56,11.81H97.22A69.6,69.6,0,0,0,27.78,81.25V95.14H13.89A13.89,13.89,0,0,0,0,109v83.33a13.89,13.89,0,0,0,13.89,13.89H27.78v83.33H13.89A13.89,13.89,0,0,0,0,303.47v83.34a13.88,13.88,0,0,0,13.89,13.88H27.78v13.89A69.61,69.61,0,0,0,97.22,484H430.56A69.61,69.61,0,0,0,500,414.58V81.25A69.6,69.6,0,0,0,430.56,11.81ZM27.78,122.92H55.56v55.55H27.78Zm0,250V317.36H55.56v55.56Zm444.44,41.66a41.83,41.83,0,0,1-41.66,41.67H97.22a41.83,41.83,0,0,1-41.66-41.67V400.69H69.44a13.88,13.88,0,0,0,13.89-13.88V303.47a13.89,13.89,0,0,0-13.89-13.89H55.56V206.25H69.44a13.89,13.89,0,0,0,13.89-13.89V109A13.89,13.89,0,0,0,69.44,95.14H55.56V81.25A41.83,41.83,0,0,1,97.22,39.58H430.56a41.83,41.83,0,0,1,41.66,41.67Z"/><path class="cls-2" d="M263.89,95.14A152.78,152.78,0,1,0,416.67,247.92,152.76,152.76,0,0,0,263.89,95.14Zm41.67,152.78a41.67,41.67,0,1,1-41.67-41.67A41.69,41.69,0,0,1,305.56,247.92ZM149.34,298h0l-.45-1.06-.33-.79c-.28-.67-.56-1.34-.83-2-.11-.29-.23-.58-.34-.86-.26-.67-.51-1.33-.75-2-.12-.31-.23-.63-.34-.94q-.36-1-.69-1.95c-.12-.34-.23-.67-.34-1-.21-.64-.42-1.28-.62-1.92-.12-.36-.23-.72-.33-1.07-.2-.63-.38-1.26-.57-1.89-.11-.38-.21-.76-.32-1.15-.17-.61-.34-1.23-.5-1.85l-.3-1.21-.45-1.82c-.1-.43-.19-.85-.28-1.28-.14-.59-.27-1.18-.39-1.78l-.27-1.35c-.11-.58-.23-1.16-.33-1.74s-.17-.95-.25-1.42-.19-1.14-.28-1.71l-.21-1.49-.24-1.66-.18-1.58c-.06-.53-.13-1.06-.18-1.6s-.11-1.12-.16-1.68-.09-1-.13-1.52-.08-1.22-.12-1.83-.07-.93-.09-1.4c0-.7-.06-1.4-.08-2.1,0-.38,0-.77,0-1.16,0-1.09,0-2.18,0-3.27h0c0-1.1,0-2.19,0-3.28,0-.39,0-.77,0-1.16,0-.7,0-1.4.08-2.1,0-.46.06-.93.09-1.4s.07-1.22.12-1.82.09-1,.13-1.53.1-1.12.16-1.68.12-1.06.18-1.6l.18-1.58.24-1.66.21-1.49c.09-.57.19-1.14.28-1.7s.16-.95.25-1.42.22-1.17.33-1.75l.27-1.35c.12-.59.25-1.19.39-1.78.09-.43.18-.85.28-1.28l.45-1.82.3-1.21c.16-.62.33-1.23.5-1.85.11-.38.21-.76.32-1.14.19-.64.37-1.27.57-1.89q.15-.54.33-1.08c.2-.64.41-1.28.62-1.92.11-.33.22-.67.34-1,.22-.66.45-1.31.69-2,.11-.31.22-.62.34-.93.24-.67.5-1.33.75-2,.11-.29.23-.58.34-.86.27-.68.55-1.36.83-2l.33-.79c.15-.35.29-.7.45-1.05h0a125.31,125.31,0,0,1,13.91-24h0a125.77,125.77,0,0,1,21.1-22.27l.07-.06c.72-.6,1.46-1.19,2.2-1.77l.18-.14,2.16-1.66.28-.21,2.14-1.56.33-.23c.71-.51,1.42-1,2.14-1.49l.37-.25,2.16-1.42.39-.25,2.19-1.37.39-.23c.74-.45,1.49-.89,2.24-1.32l.36-.21c.77-.44,1.54-.87,2.32-1.29l.27-.15c.81-.44,1.63-.87,2.45-1.29l.08,0c2.29-1.17,4.64-2.27,7-3.3,3-1.3,6-2.5,9.15-3.57l.69-.24c.67-.23,1.35-.44,2-.66l1-.31,1.89-.57,1.17-.33,1.79-.49,1.3-.34c.57-.15,1.15-.29,1.73-.42l1.39-.33,1.69-.37,1.47-.3L241,125l1.53-.28,1.62-.27,1.6-.24,1.59-.22,1.66-.21,1-.12h0v56.12a69.52,69.52,0,0,0-55.61,68.11h0a69.4,69.4,0,0,0,3.58,22Zm194.11,46.32-.07.06c-.72.6-1.46,1.19-2.2,1.77l-.19.15c-.71.56-1.43,1.11-2.15,1.65l-.28.21c-.71.53-1.42,1.05-2.14,1.56l-.33.24L334,351.45l-.38.25c-.71.48-1.43,1-2.15,1.42l-.4.25c-.72.47-1.45.92-2.19,1.37l-.38.23c-.74.45-1.49.89-2.24,1.33l-.36.2-2.32,1.3-.27.14c-.82.44-1.63.87-2.45,1.29l-.08,0c-2.3,1.17-4.64,2.26-7,3.29-3,1.3-6,2.5-9.14,3.57l-.69.24c-.67.23-1.35.44-2,.66l-1,.32-1.89.56-1.17.34-1.8.48-1.29.34-1.74.43-1.38.32-1.7.37-1.46.3-1.65.32-1.53.27-1.63.27-1.59.24-1.59.22c-.55.08-1.11.14-1.66.21l-1,.12h0a125,125,0,0,1-13.89.78h0a124.87,124.87,0,0,1-13.89-.78h0c-.34,0-.67-.08-1-.12-.56-.07-1.11-.13-1.66-.21l-1.59-.22-1.59-.24-1.63-.27-1.53-.27-1.66-.32-1.46-.3-1.69-.37-1.38-.32-1.74-.43-1.29-.33-1.81-.49-1.16-.34-1.89-.56-1-.32c-.68-.21-1.36-.43-2-.66l-.69-.24c-3.22-1.1-6.37-2.35-9.46-3.71-2.27-1-4.51-2-6.7-3.16l-.08,0c-.82-.43-1.64-.86-2.45-1.3l-.27-.14-2.32-1.3-.36-.2c-.75-.44-1.5-.88-2.24-1.33l-.39-.23-2.19-1.37-.39-.25c-.72-.46-1.44-.94-2.16-1.42l-.37-.25L191.69,350l-.33-.24c-.72-.51-1.44-1-2.14-1.56l-.28-.21c-.72-.54-1.44-1.09-2.15-1.65l-.2-.15c-.73-.58-1.47-1.17-2.19-1.77l-.07-.06a125.43,125.43,0,0,1-21.1-22.27h0L211.87,294a69.26,69.26,0,0,0,52,23.44h0a69.26,69.26,0,0,0,52-23.44l48.62,28.08h0A125.71,125.71,0,0,1,343.45,344.33Zm35.44-145.46c.12.26.23.53.34.79.28.67.56,1.35.83,2,.11.29.22.58.34.87.25.66.51,1.32.75,2,.12.31.23.62.34.94.24.64.47,1.29.69,1.94.11.34.23.68.34,1,.21.63.42,1.27.62,1.91l.33,1.08c.19.63.38,1.25.56,1.88.11.39.22.77.32,1.15.17.62.34,1.23.5,1.85.11.41.21.81.31,1.22.15.6.3,1.2.44,1.81.1.43.2.86.29,1.28.13.6.27,1.19.39,1.78l.27,1.35c.11.58.23,1.16.33,1.75s.16.94.24,1.42.2,1.13.29,1.7l.21,1.5c.08.55.16,1.1.23,1.65s.13,1.06.19,1.59.13,1.06.18,1.59.11,1.13.16,1.69.09,1,.13,1.51.08,1.23.12,1.84.07.93.09,1.39c0,.7.06,1.4.08,2.1,0,.39,0,.77.05,1.16,0,1.09,0,2.18,0,3.28s0,2.18,0,3.27c0,.39,0,.78-.05,1.16,0,.7,0,1.4-.08,2.1,0,.46-.06.93-.09,1.39s-.07,1.23-.12,1.84-.09,1-.13,1.51-.1,1.13-.16,1.69-.12,1.06-.18,1.59-.12,1.07-.19,1.6-.15,1.09-.23,1.64l-.21,1.5c-.09.57-.19,1.14-.29,1.71s-.15.94-.24,1.42-.22,1.16-.33,1.74l-.27,1.35c-.12.59-.26,1.19-.39,1.78-.09.43-.19.86-.29,1.28-.14.61-.29,1.21-.44,1.82-.1.4-.2.81-.31,1.21-.16.62-.33,1.24-.5,1.85-.1.38-.21.77-.32,1.15-.18.63-.37,1.26-.56,1.88l-.33,1.08c-.2.64-.41,1.28-.62,1.92-.11.33-.23.67-.34,1q-.33,1-.69,1.95c-.11.31-.22.63-.34.94-.24.66-.5,1.32-.75,2l-.35.87c-.26.68-.54,1.35-.82,2-.11.26-.22.53-.34.79l-.45,1.05-48.63-28.08a69.4,69.4,0,0,0,3.58-22h0a69.57,69.57,0,0,0-55.61-68.11V123.69h0l1,.12,1.67.21,1.58.22,1.61.24,1.61.27,1.54.28,1.65.31,1.47.3,1.69.37,1.39.33,1.73.42,1.3.34,1.79.48,1.17.35c.63.18,1.26.36,1.89.56l1,.31c.68.22,1.36.43,2,.66l.69.24c3.11,1.07,6.15,2.27,9.14,3.57,2.38,1,4.72,2.12,7,3.3l.08,0c.82.42,1.63.85,2.45,1.29l.27.15c.78.42,1.55.85,2.32,1.29l.36.21c.75.43,1.5.87,2.24,1.32l.38.23c.74.45,1.47.91,2.19,1.37l.4.25c.72.47,1.44.94,2.15,1.42l.38.25,2.14,1.48.33.25c.72.51,1.43,1,2.14,1.55l.28.21c.72.55,1.44,1.1,2.15,1.66a1.33,1.33,0,0,1,.19.14l2.2,1.77.07.06a125.71,125.71,0,0,1,21.09,22.27h0a125.31,125.31,0,0,1,13.91,24C378.59,198.17,378.75,198.52,378.89,198.87Z"/></svg>