<svg id="Layer_1" data-name="Layer 1" xmlns="http://www.w3.org/2000/svg" viewBox="0 0 500 500"><defs><style>.polygon-fill-1{fill:#8247e5;}</style></defs><path class="polygon-fill-1" d="M378.59,164.49c-9.14-5.22-20.89-5.22-31.33,0l-73.11,43.08L224.54,235l-71.8,43.08c-9.14,5.22-20.89,5.22-31.33,0L65.27,244.13a31.85,31.85,0,0,1-15.66-27.42V151.44c0-10.45,5.22-20.89,15.66-27.42l56.14-32.64c9.14-5.22,20.89-5.22,31.33,0l56.14,34a31.8,31.8,0,0,1,15.66,27.41v43.08l49.61-28.72V122.72c0-10.45-5.22-20.89-15.66-27.42L154.05,33.94c-9.14-5.22-20.89-5.22-31.33,0l-107,62.67C5.22,101.83,0,112.27,0,122.72V245.43c0,10.44,5.22,20.89,15.67,27.42L121.41,334.2c9.14,5.23,20.89,5.23,31.33,0l71.8-41.77,49.61-28.72L346,221.93c9.14-5.22,20.89-5.22,31.33,0l56.14,32.64A31.81,31.81,0,0,1,449.09,282v65.28c0,10.44-5.23,20.89-15.67,27.41l-54.83,32.64c-9.14,5.22-20.89,5.22-31.33,0l-56.14-32.64a31.8,31.8,0,0,1-15.66-27.41V305.48L225.85,334.2v43.08c0,10.45,5.22,20.89,15.66,27.42l105.75,61.36c9.14,5.22,20.89,5.22,31.33,0L484.33,404.7A31.83,31.83,0,0,0,500,377.28v-124c0-10.44-5.22-20.88-15.67-27.41Z"/></svg>