<?xml version="1.0" encoding="UTF-8"?>
<svg id="Layer_1" data-name="Layer 1" xmlns="http://www.w3.org/2000/svg" viewBox="0 0 500 500">
  <defs>
    <style>
      .cls-1 {
        fill: #a9e2b0;
      }

      .cls-1, .cls-2 {
        stroke-width: 0px;
      }

      .cls-2 {
        fill: #ffb45a;
      }
    </style>
  </defs>
  <path class="cls-2" d="m52.54,344.54c-13.67,13.67-21.29,32.13-21.29,51.47,0,40.14,32.62,72.76,72.76,72.76,19.34,0,37.8-7.62,51.47-21.29l197.48-197.48h-205.88l-94.54,94.54Z"/>
  <path class="cls-1" d="m495.46,192.06l-31.25-31.25-125.01-125.01-31.25-31.25c-6.06-6.06-16.02-6.06-22.07,0-6.06,6.06-6.06,16.02,0,22.07l20.22,20.22-128.05,128.05-79.69,79.69-67.88,67.88C10.94,341.98,0,368.44,0,395.99c0,57.43,46.59,104.01,104.01,104.01,27.54,0,54.01-10.94,73.54-30.47l192.89-192.89,36.45-36.45,46.27-46.27,20.22,20.22c6.06,6.06,16.02,6.06,22.07,0,6.06-6.06,6.06-16.02,0-22.07Zm-88.56,3.98l-53.93,53.93-197.48,197.48c-13.67,13.67-32.13,21.29-51.47,21.29-40.14,0-72.76-32.62-72.76-72.76,0-19.34,7.62-37.8,21.29-51.47l94.54-94.54,75.1-75.1,105.97-105.97,102.94,102.94-24.2,24.2Z"/>
</svg>