<svg id="Layer_1" data-name="Layer 1" xmlns="http://www.w3.org/2000/svg" viewBox="0 0 500 500"><defs><style>.cls-1{fill:#e17726;stroke:#e17726;}.cls-1,.cls-10,.cls-2,.cls-3,.cls-4,.cls-5,.cls-6,.cls-7,.cls-8,.cls-9{stroke-linecap:round;stroke-linejoin:round;}.cls-2{fill:#e27625;stroke:#e27625;}.cls-3{fill:#d5bfb2;stroke:#d5bfb2;}.cls-4{fill:#233447;stroke:#233447;}.cls-5{fill:#cc6228;stroke:#cc6228;}.cls-6{fill:#e27525;stroke:#e27525;}.cls-7{fill:#f5841f;stroke:#f5841f;}.cls-8{fill:#c0ac9d;stroke:#c0ac9d;}.cls-9{fill:#161616;stroke:#161616;}.cls-10{fill:#763e1a;stroke:#763e1a;}</style></defs><polygon class="cls-1" points="452.76 41.33 276.92 171.78 309.58 94.82 452.76 41.33"/><polygon class="cls-2" points="47.24 41.33 221.48 173.02 190.42 94.82 47.24 41.33"/><polygon class="cls-2" points="389.55 343.75 342.77 415.42 442.87 442.95 471.47 345.33 389.55 343.75"/><polygon class="cls-2" points="28.7 345.33 57.13 442.95 157.23 415.42 110.63 343.75 28.7 345.33"/><polygon class="cls-2" points="151.75 222.63 123.86 264.83 223.08 269.25 219.72 162.43 151.75 222.63"/><polygon class="cls-2" points="348.25 222.63 279.21 161.19 276.92 269.25 376.14 264.83 348.25 222.63"/><polygon class="cls-2" points="157.23 415.42 217.08 386.28 165.52 346.04 157.23 415.42"/><polygon class="cls-2" points="282.92 386.28 342.77 415.42 334.48 346.04 282.92 386.28"/><polygon class="cls-3" points="342.77 415.42 282.92 386.28 287.68 425.3 287.16 441.72 342.77 415.42"/><polygon class="cls-3" points="157.23 415.42 212.84 441.72 212.49 425.3 217.08 386.28 157.23 415.42"/><polygon class="cls-4" points="213.9 320.25 164.11 305.61 199.24 289.54 213.9 320.25"/><polygon class="cls-4" points="286.1 320.25 300.76 289.54 336.06 305.61 286.1 320.25"/><polygon class="cls-5" points="157.23 415.42 165.87 343.75 110.63 345.33 157.23 415.42"/><polygon class="cls-5" points="334.13 343.75 342.77 415.42 389.55 345.33 334.13 343.75"/><polygon class="cls-5" points="376.14 264.83 276.92 269.25 286.1 320.25 300.76 289.54 336.06 305.61 376.14 264.83"/><polygon class="cls-5" points="164.11 305.61 199.24 289.54 213.9 320.25 223.08 269.25 123.86 264.83 164.11 305.61"/><polygon class="cls-6" points="123.86 264.83 165.52 346.04 164.11 305.61 123.86 264.83"/><polygon class="cls-6" points="336.06 305.61 334.48 346.04 376.14 264.83 336.06 305.61"/><polygon class="cls-6" points="223.08 269.25 213.9 320.25 225.55 380.45 228.02 301.19 223.08 269.25"/><polygon class="cls-6" points="276.92 269.25 272.15 301.02 274.45 380.45 286.1 320.25 276.92 269.25"/><polygon class="cls-7" points="286.1 320.25 274.45 380.45 282.92 386.28 334.48 346.04 336.06 305.61 286.1 320.25"/><polygon class="cls-7" points="164.11 305.61 165.52 346.04 217.08 386.28 225.55 380.45 213.9 320.25 164.11 305.61"/><polygon class="cls-8" points="287.16 441.72 287.68 425.3 283.28 421.42 216.72 421.42 212.49 425.3 212.84 441.72 157.23 415.42 176.65 431.3 216.19 458.67 283.81 458.67 323.35 431.3 342.77 415.42 287.16 441.72"/><polygon class="cls-9" points="282.92 386.28 274.45 380.45 225.55 380.45 217.08 386.28 212.49 425.3 216.72 421.42 283.28 421.42 287.68 425.3 282.92 386.28"/><polygon class="cls-10" points="460.17 180.27 475 108.24 452.76 41.33 282.92 167.38 348.25 222.63 440.57 249.65 460.88 225.81 452.05 219.46 466.17 206.56 455.4 198.09 469.52 187.33 460.17 180.27"/><polygon class="cls-10" points="25 108.24 40.01 180.27 30.48 187.33 44.6 198.09 33.83 206.56 47.95 219.46 39.12 225.81 59.43 249.65 151.75 222.63 217.08 167.38 47.24 41.33 25 108.24"/><polygon class="cls-7" points="440.57 249.65 348.25 222.63 376.14 264.83 334.48 346.04 389.55 345.33 471.47 345.33 440.57 249.65"/><polygon class="cls-7" points="151.75 222.63 59.43 249.65 28.7 345.33 110.63 345.33 165.52 346.04 123.86 264.83 151.75 222.63"/><polygon class="cls-7" points="276.92 269.25 282.92 167.38 309.58 94.82 190.42 94.82 217.08 167.38 223.08 269.25 225.38 301.37 225.55 380.45 274.45 380.45 274.62 301.37 276.92 269.25"/></svg>