<?xml version="1.0" encoding="UTF-8"?>
<svg id="Layer_1" data-name="Layer 1" xmlns="http://www.w3.org/2000/svg" xmlns:xlink="http://www.w3.org/1999/xlink" viewBox="0 0 500 500">
  <defs>
    <style>
      .cls-1 {
        fill: url(#linear-gradient);
      }

      .cls-1, .cls-2, .cls-3, .cls-4 {
        stroke-width: 0px;
      }

      .cls-2 {
        fill: url(#linear-gradient-3);
      }

      .cls-2, .cls-3 {
        fill-rule: evenodd;
      }

      .cls-3 {
        fill: url(#linear-gradient-2);
      }

      .cls-4 {
        fill: url(#linear-gradient-4);
      }
    </style>
    <linearGradient id="linear-gradient" x1="158" y1="587.31" x2="469.53" y2="675.66" gradientTransform="translate(0 -346)" gradientUnits="userSpaceOnUse">
      <stop offset="0" stop-color="#8797ff"/>
      <stop offset="1" stop-color="#aaa8ff"/>
    </linearGradient>
    <linearGradient id="linear-gradient-2" x1="405.7" y1="594.09" x2="180.91" y2="368.75" gradientTransform="translate(0 -346)" gradientUnits="userSpaceOnUse">
      <stop offset="0" stop-color="#3b22a0"/>
      <stop offset="1" stop-color="#5156d8" stop-opacity="0"/>
    </linearGradient>
    <linearGradient id="linear-gradient-3" x1="300.19" y1="709.77" x2="84.26" y2="585.62" gradientTransform="translate(0 -346)" gradientUnits="userSpaceOnUse">
      <stop offset="0" stop-color="#3b1e8f"/>
      <stop offset="1" stop-color="#6a6ffb" stop-opacity="0"/>
    </linearGradient>
    <linearGradient id="linear-gradient-4" x1="143.07" y1="612.83" x2="289.02" y2="798.28" gradientTransform="translate(0 -346)" gradientUnits="userSpaceOnUse">
      <stop offset="0" stop-color="#8898ff"/>
      <stop offset=".98" stop-color="#5f47f1"/>
    </linearGradient>
  </defs>
  <path class="cls-1" d="m472.72,278.11c17.59-39.45-69.87-150.19-153.52-195.82-52.76-35.65-107.42-30.89-118.82-15.21-24.24,34.22,80.8,63.69,151.14,97.43-15.21,6.65-29.47,18.54-37.55,33.27-26.14-28.52-83.65-53.23-151.14-33.27-45.63,13.31-83.18,45.15-97.91,92.68-3.33-1.43-7.6-2.38-11.41-2.38-15.68,0-28.52,12.83-28.52,28.52s12.83,28.52,28.52,28.52c2.85,0,11.88-1.9,11.88-1.9l146.39.95c-58.46,93.16-105.04,106.47-105.04,122.62s44.2,11.88,60.84,5.7c79.85-28.52,165.4-118.35,180.14-144.01,61.79,8.08,113.59,8.56,125-17.11Z"/>
  <path class="cls-3" d="m352,164.52h0c3.33-1.43,2.85-6.18,1.9-9.98-1.9-8.56-37.55-43.73-70.82-59.41-45.63-21.39-78.9-20.44-83.65-10.46,9.03,19.01,52.28,36.6,96.96,55.61,18.54,7.6,38.02,15.68,55.61,24.24h0Z"/>
  <path class="cls-2" d="m294.01,355.58c-9.03-3.33-19.49-6.65-31.37-9.51,12.36-22.34,15.21-56.08,3.33-77-16.64-29.47-37.55-45.15-86.5-45.15-26.62,0-98.86,9.03-100.29,69.39,0,6.18,0,11.88.48,17.59h132.13c-17.59,28.04-34.22,48.95-48.95,64.64,17.59,4.28,31.84,8.08,45.15,11.88,12.36,3.33,24.24,6.18,36.12,9.51,18.06-13.31,35.17-27.57,49.91-41.35Z"/>
  <path class="cls-4" d="m63.02,303.78c5.23,45.63,31.37,63.69,84.6,68.92s83.65,1.9,124.05,5.23c33.75,2.85,64.16,20.44,75.1,14.26,9.98-5.23,4.28-24.72-9.03-37.07-17.59-16.16-41.83-27.09-84.13-31.37,8.56-23.29,6.18-56.08-7.13-73.67-19.01-25.67-54.18-37.07-98.86-32.32-46.58,5.7-91.26,28.99-84.6,86.03Z"/>
</svg>