<?xml version="1.0" encoding="UTF-8"?>
<svg id="Layer_1" data-name="Layer 1" xmlns="http://www.w3.org/2000/svg" viewBox="0 0 500 500">
  <defs>
    <style>
      .cls-1 {
        fill: #a9e2b0;
      }

      .cls-2 {
        fill: #2a313e;
      }
    </style>
  </defs>
  <rect class="cls-1" x="1.52" y="0" width="496.47" height="496.47" rx="248.24" ry="248.24"/>
  <path class="cls-2" d="M250,0h0C111.93,0,0,111.93,0,250H0c0,138.07,111.93,250,250,250h0c138.07,0,250-111.93,250-250h0C500,111.93,388.07,0,250,0ZM17.5,250h0c0-72.93,33.58-138,86.12-180.62V430.62c-52.53-42.63-86.12-107.7-86.12-180.62Zm232.5,232.5c-31,0-60.57-6.08-87.61-17.09v-151.75c0-33.77,2.91-59.78,8.75-78.04,5.83-18.25,15.5-31.25,29.04-39.02,13.52-7.75,32.89-11.64,58.07-11.64,20.52,0,36.38,2.51,47.58,7.53,11.19,5.03,19.24,13.47,24.14,25.33,4.9,11.87,7.35,28.75,7.35,50.65v197.05c-26.96,10.93-56.43,16.97-87.31,16.97h0Zm232.5-232.5c0,73.39-34.01,138.82-87.12,181.43v-161.58c0-36.05-3.62-63.66-10.84-82.83-7.24-19.17-19.24-32.86-36.03-41.07-16.79-8.21-40.82-12.32-72.07-12.32s-55.16,4.22-70.32,12.66c-15.16,8.45-28.11,24.54-38.83,48.26h-4.9V34.59c27.04-11.01,56.61-17.09,87.61-17.09h0c128.41,0,232.5,104.09,232.5,232.5h0Z"/>
</svg>