<?xml version="1.0" encoding="UTF-8"?>
<svg id="Capa_1" data-name="Capa 1" xmlns="http://www.w3.org/2000/svg" viewBox="0 0 512 512">
  <defs>
    <style>
      .cls-1 {
        fill: #d1d2d3;
      }
    </style>
  </defs>
  <path class="cls-1" d="m442.33,442.37c-7.5,7.5-19.64,7.5-27.15,0l-159.18-159.24-159.22,159.24c-7.5,7.5-19.64,7.5-27.15,0-7.5-7.5-7.5-19.64,0-27.16l159.25-159.2L69.65,96.78c-7.5-7.5-7.5-19.64,0-27.16,7.5-7.5,19.64-7.5,27.15,0l159.19,159.27,159.22-159.24c7.5-7.5,19.64-7.5,27.15,0,7.5,7.5,7.5,19.64,0,27.16l-159.25,159.2,159.22,159.24c7.56,7.44,7.56,19.68,0,27.12Z"/>
</svg>