<?xml version="1.0" encoding="UTF-8"?>
<svg id="Layer_1" data-name="Layer 1" xmlns="http://www.w3.org/2000/svg" viewBox="0 0 500 500">
  <defs>
    <style>
      .cls-1 {
        fill: #a9e2b0;
      }

      .cls-2 {
        fill: #2a313e;
      }
    </style>
  </defs>
  <path class="cls-1" d="m103.63,47.33c1.12-.81-1.13.79,0,0C38.95,92.51,0,165.11,0,250h0c0,84.89,38.95,157.49,103.63,202.67-1.13-.79,1.12.81,0,0V47.33Z"/>
  <path class="cls-1" d="m250,0h0c-30.75,0-60.19,5.56-87.4,15.72v178.65h4.91c10.76-23.8,23.75-39.94,38.96-48.42,15.2-8.47,38.72-12.71,70.55-12.71s55.46,4.12,72.31,12.36c16.85,8.24,28.89,21.98,36.15,41.21,7.25,19.23,10.88,46.94,10.88,83.1v182.76c-1.11.8,1.12-.78,0,0,64.67-45.19,103.63-117.8,103.63-202.67h0C500,111.93,388.07,0,250,0Z"/>
  <path class="cls-1" d="m330.73,217.72c-4.91-11.9-12.99-20.37-24.22-25.41-11.23-5.03-27.15-7.55-47.74-7.55-25.27,0-44.7,3.9-58.27,11.68-13.58,7.79-23.29,20.84-29.13,39.15-5.86,18.32-8.78,44.42-8.78,78.3v170.41c27.21,10.15,56.65,15.72,87.4,15.72h0c31.01,0,60.7-5.66,88.1-15.98v-215.47c0-21.98-2.46-38.91-7.37-50.82Z"/>
  <polygon class="cls-2" points="162.6 484.28 162.6 484.28 162.59 484.28 162.6 484.28"/>
  <polygon class="cls-2" points="338.1 484.02 338.11 484.01 338.1 484.02 338.1 484.02"/>
  <polygon class="cls-2" points="162.6 15.72 162.59 15.72 162.6 15.72 162.6 15.72"/>
</svg>