<?xml version="1.0" encoding="UTF-8"?><svg id="a" xmlns="http://www.w3.org/2000/svg" viewBox="0 0 500 500"><defs><style>.b{fill:#a9e2b0;}.c{fill:#2a313e;}</style></defs><path class="c" d="M330.73,217.72c-4.91-11.9-12.99-20.37-24.22-25.41-11.23-5.03-27.15-7.55-47.74-7.55-25.27,0-44.7,3.9-58.27,11.68-13.58,7.79-23.29,20.84-29.13,39.15-5.86,18.32-8.78,44.42-8.78,78.3v170.41c27.21,10.15,56.65,15.72,87.4,15.72h0c31.01,0,60.7-5.66,88.1-15.98v-215.47c0-21.98-2.46-38.91-7.37-50.82Z"/><path class="c" d="M250,0h0c-30.75,0-60.19,5.56-87.4,15.72V194.37h4.91c10.76-23.8,23.75-39.94,38.96-48.42,15.2-8.47,38.72-12.71,70.55-12.71s55.46,4.12,72.31,12.36c16.85,8.24,28.89,21.98,36.15,41.21,7.25,19.23,10.88,46.94,10.88,83.1v182.76c62.78-45.42,103.63-119.27,103.63-202.67h0C500,111.93,388.07,0,250,0Z"/><path class="c" d="M0,250H0c0,83.41,40.85,157.26,103.63,202.67V47.33C40.85,92.74,0,166.59,0,250Z"/><path class="b" d="M385.49,186.81c-7.26-19.23-19.31-32.97-36.15-41.21-16.85-8.24-40.96-12.36-72.31-12.36s-55.35,4.24-70.55,12.71c-15.21,8.48-28.2,24.62-38.96,48.42h-4.91V15.72c-21.16,7.9-40.97,18.58-58.97,31.61V452.67c18,13.02,37.81,23.71,58.97,31.61v-170.41c0-33.88,2.92-59.98,8.78-78.3,5.85-18.31,15.55-31.36,29.13-39.15,13.57-7.78,33-11.68,58.27-11.68,20.59,0,36.51,2.52,47.74,7.55,11.23,5.04,19.31,13.51,24.22,25.41,4.91,11.91,7.37,28.85,7.37,50.82v215.47c20.9-7.87,40.46-18.46,58.27-31.34v-182.76c0-36.17-3.63-63.87-10.88-83.1Z"/></svg>