<?xml version="1.0" encoding="UTF-8"?><svg id="a" xmlns="http://www.w3.org/2000/svg" viewBox="0 0 500 500"><defs><style>.b,.c{fill:#a9e2b0;}.d{fill:#2a313e;}.c{opacity:.5;}</style></defs><path class="c" d="M250,0h0C111.93,0,0,111.93,0,250H0c0,138.07,111.93,250,250,250h0c138.07,0,250-111.93,250-250h0C500,111.93,388.07,0,250,0Zm237.5,250c0,131.17-106.33,237.5-237.5,237.5h0c-131.17,0-237.5-106.33-237.5-237.5h0C12.5,118.83,118.83,12.5,250,12.5h0c131.17,0,237.5,106.33,237.5,237.5h0Z"/><rect class="d" x="12.5" y="12.5" width="475" height="475" rx="237.5" ry="237.5"/><path class="b" d="M385.49,186.81c-7.26-19.23-19.31-32.97-36.15-41.21-16.85-8.24-40.96-12.36-72.31-12.36s-55.35,4.24-70.55,12.71c-15.21,8.48-28.2,24.62-38.96,48.42h-4.91V15.72c-21.16,7.9-40.97,18.58-58.97,31.61V452.67c18,13.02,37.81,23.71,58.97,31.61v-170.41c0-33.88,2.92-59.98,8.78-78.3,5.85-18.31,15.55-31.36,29.13-39.15,13.57-7.78,33-11.68,58.27-11.68,20.59,0,36.51,2.52,47.74,7.55,11.23,5.04,19.31,13.51,24.22,25.41,4.91,11.91,7.37,28.85,7.37,50.82v215.47c20.9-7.87,40.46-18.46,58.27-31.34v-182.76c0-36.17-3.63-63.87-10.88-83.1Z"/></svg>