<?xml version="1.0" encoding="UTF-8"?><svg id="a" xmlns="http://www.w3.org/2000/svg" viewBox="0 0 500 500"><defs><style>.b{fill:#a9e2b0;}.c{fill:#2a313e;}</style></defs><rect class="b" x="0" width="500" height="500"/><path class="c" d="M103.63,0h58.97V194.37h4.91c10.76-23.8,23.75-39.94,38.96-48.42,15.2-8.47,38.72-12.71,70.55-12.71s55.46,4.12,72.31,12.36c16.85,8.24,28.89,21.98,36.15,41.21,7.25,19.23,10.88,46.94,10.88,83.1v230.08h-58.27v-231.46c0-21.98-2.46-38.91-7.37-50.82-4.91-11.9-12.99-20.37-24.22-25.41-11.23-5.03-27.15-7.55-47.74-7.55-25.27,0-44.7,3.9-58.27,11.68-13.58,7.79-23.29,20.84-29.13,39.15-5.86,18.32-8.78,44.42-8.78,78.3v186.13h-58.97V0Z"/></svg>