<svg id="Layer_1" data-name="Layer 1" xmlns="http://www.w3.org/2000/svg" viewBox="0 0 200 200"><defs><style>.cls-1{fill:#a9e3b0;}.cls-2{fill:#2a313e;}.cls-3{fill:none;}</style></defs><path class="cls-1" d="M190.09,58.8a7.92,7.92,0,0,0-4.33-1.23,12.6,12.6,0,0,0-5.31,1.32L126,84.4c-9.23,4.32-16.74,17.36-16.74,29.06v68.29c0,5.69,1.83,10.12,5,12.15,2.62,1.67,6,1.64,9.64-.09l54.44-25.51c9.23-4.32,16.74-17.36,16.74-29.06V71C195.12,65.26,193.29,60.83,190.09,58.8Z"/><path class="cls-2" d="M192.71,54.68c-4-2.57-9.13-2.64-14.33-.21L123.94,80c-11,5.14-19.55,19.84-19.55,33.48v68.29c0,7.39,2.66,13.32,7.29,16.27a12.77,12.77,0,0,0,6.94,2,17.42,17.42,0,0,0,7.39-1.78l54.44-25.5c11-5.14,19.55-19.84,19.55-33.48V71C200,63.55,197.34,57.63,192.71,54.68Zm2.41,84.56c0,11.7-7.51,24.74-16.74,29.06l-54.44,25.51c-3.69,1.73-7,1.76-9.64.09-3.2-2-5-6.46-5-12.15V113.46c0-11.7,7.51-24.74,16.74-29.06l54.44-25.51a12.6,12.6,0,0,1,5.31-1.32,7.92,7.92,0,0,1,4.33,1.23c3.2,2,5,6.46,5,12.15Z"/><polygon class="cls-2" points="174.69 82.45 164.09 87.41 152.61 120.86 140.1 98.54 130.18 103.18 148.23 134.24 148.23 135.35 135.24 141.44 135.24 151.3 148.23 145.22 148.23 149.31 135.24 155.4 135.24 165.15 148.23 159.06 148.23 170.47 157.46 166.14 157.46 154.74 169.89 148.91 169.89 139.16 157.46 144.99 157.46 140.89 169.89 135.06 169.89 125.2 157.51 131 174.69 82.45"/><path class="cls-1" d="M74,84.4,19.55,58.89c-3.69-1.73-7-1.76-9.64-.09-3.2,2-5,6.46-5,12.15v68.29c0,11.7,7.51,24.74,16.74,29.06l54.44,25.51c3.69,1.73,7,1.76,9.64.09,3.2-2,5-6.46,5-12.15V113.46C90.73,101.76,83.22,88.72,74,84.4Z"/><path class="cls-2" d="M76.06,80,21.62,54.47c-5.2-2.43-10.29-2.36-14.33.21C2.66,57.63,0,63.55,0,71v68.29c0,13.64,8.59,28.34,19.55,33.48L74,198.22h0A17.42,17.42,0,0,0,81.38,200a12.77,12.77,0,0,0,6.94-2c4.63-3,7.29-8.88,7.29-16.27V113.46C95.61,99.82,87,85.12,76.06,80ZM90.73,181.75c0,5.69-1.83,10.12-5,12.15-2.62,1.67-6,1.64-9.64-.09L21.62,168.3C12.39,164,4.88,150.94,4.88,139.24V71c0-5.69,1.83-10.12,5-12.15,2.62-1.67,5.95-1.64,9.64.09L74,84.4c9.23,4.32,16.74,17.36,16.74,29.06Z"/><path class="cls-2" d="M63,159.14l-1.5.94a9.39,9.39,0,0,1-2.74,1.13,7.66,7.66,0,0,1-2.95.07,13.82,13.82,0,0,1-3.53-1.16,22.83,22.83,0,0,1-7.35-5.67A32.79,32.79,0,0,1,39.21,145a49.59,49.59,0,0,1-2.85-10.1l16.49,7.73,3.3-8.9L35.35,124v-3.25c0-1.12,0-2.1,0-2.93,0-.13,0-.25,0-.38l22.7,10.64,3.16-9L36.64,107.55a23.7,23.7,0,0,1,2.1-6.08A9.34,9.34,0,0,1,42,97.79a7.64,7.64,0,0,1,4-1.08,11.48,11.48,0,0,1,4.74,1.18,19.59,19.59,0,0,1,4.24,2.56A13.72,13.72,0,0,1,57.47,103a13.58,13.58,0,0,1,1.44,2.52c.39.92.74,1.8,1.07,2.64a9.52,9.52,0,0,0,1.64,2.76l1.67,1.94,3.52-10.34-.33-.57a35.38,35.38,0,0,0-6.2-8.15,28.79,28.79,0,0,0-7.83-5.44,21.7,21.7,0,0,0-7.66-2,13.86,13.86,0,0,0-7.52,1.61A16.35,16.35,0,0,0,31.15,94a30.61,30.61,0,0,0-3.4,9.34L22.7,101l-1.87,9.57,5.59,2.62c0,.66-.07,1.39-.09,2.18,0,1.23,0,2.44,0,3.64v.71l-3.58-1.68-1.87,9.57,6,2.83a63.67,63.67,0,0,0,4.28,17.25,49.28,49.28,0,0,0,8.38,13.79,34.34,34.34,0,0,0,11.08,8.56,19.62,19.62,0,0,0,8.15,2h.05a13.32,13.32,0,0,0,7.07-2l1-.63Z"/><path class="cls-1" d="M168.76,32.81,116.41,8.08A39.81,39.81,0,0,0,100,4.88a39.84,39.84,0,0,0-16.41,3.2L31.24,32.81c-3.7,1.75-5.83,3.95-5.83,6s2.13,4.28,5.83,6L83.59,69.61c9,4.27,23.77,4.27,32.82,0l52.35-24.73c3.7-1.75,5.83-4,5.83-6S172.46,34.56,168.76,32.81Z"/><path class="cls-2" d="M170.84,28.4,118.49,3.67c-10.37-4.89-26.61-4.89-37,0L29.16,28.4C23.6,31,20.53,34.73,20.53,38.85s3.07,7.81,8.63,10.44L81.51,74A44.64,44.64,0,0,0,100,77.69,44.64,44.64,0,0,0,118.49,74l52.35-24.73c5.56-2.63,8.63-6.34,8.63-10.44S176.4,31,170.84,28.4Zm-2.08,16.48L116.41,69.61c-9,4.27-23.77,4.27-32.82,0L31.24,44.88c-3.7-1.75-5.83-4-5.83-6s2.13-4.29,5.83-6L83.59,8.08A39.84,39.84,0,0,1,100,4.88a39.81,39.81,0,0,1,16.41,3.2l52.35,24.73c3.7,1.75,5.83,3.95,5.83,6S172.46,43.13,168.76,44.88Z"/><path class="cls-3" d="M125.37,39.69a14.65,14.65,0,0,0-4.68-1.3,26.24,26.24,0,0,0-6,.11c-1.22.15-2.56.36-4,.65l15.27,7.21a6.57,6.57,0,0,0,2.16-2.48,2.17,2.17,0,0,0-.1-2.09A6,6,0,0,0,125.37,39.69Z"/><path class="cls-3" d="M72.09,32.82A1.39,1.39,0,0,0,72,34.23a4.19,4.19,0,0,0,2,1.54A13.31,13.31,0,0,0,78,36.85a31,31,0,0,0,5.82,0c.93-.07,1.91-.17,2.93-.31L74.38,30.73A6.36,6.36,0,0,0,72.09,32.82Z"/><path class="cls-2" d="M134.83,50.56A12.61,12.61,0,0,0,139,45.63a7.3,7.3,0,0,0-.39-6.89,13.06,13.06,0,0,0-5.88-5,28.8,28.8,0,0,0-9.32-2.61,46.73,46.73,0,0,0-10.74.24,119.33,119.33,0,0,0-13,2.53l-15.24-7.2c1.06-.25,2.15-.46,3.22-.63a30.38,30.38,0,0,1,3.48-.34c1.2,0,2.43-.05,3.69,0A3.24,3.24,0,0,1,96,26a3.83,3.83,0,0,0,2.3.24l1.48-.3-1.71-7.12L97,18.73a62.18,62.18,0,0,0-8.09.14A63.21,63.21,0,0,0,81.14,20a47.78,47.78,0,0,0-6.78,2l-3.15-1.49-.16-.11a2.19,2.19,0,0,0-1-1.11l-.16-.07a1.93,1.93,0,0,0-.86-.16h-.33l-9.51,4.49,6.49,3.07a13.61,13.61,0,0,0-3.79,4.13,6.81,6.81,0,0,0-.46,6.31c.84,1.91,2.68,3.55,5.47,4.87a27.83,27.83,0,0,0,8.66,2.35,48.35,48.35,0,0,0,10.52-.1A113.6,113.6,0,0,0,98.33,42l18.22,8.6q-1.08.31-2.19.57a45,45,0,0,1-6,1,60.7,60.7,0,0,1-6.41.25,2.42,2.42,0,0,1-.87-.24A4.24,4.24,0,0,0,99,51.79l-1.92.13,2.68,7.65h1.92a82.63,82.63,0,0,0,8.32-.41,61.2,61.2,0,0,0,8.66-1.53,65,65,0,0,0,7.59-2.42l6.15,2.91,9.23-4.36Zm-6.73-6.68a6.57,6.57,0,0,1-2.16,2.48l-15.27-7.21c1.44-.29,2.78-.5,4-.65a26.24,26.24,0,0,1,6-.11,14.65,14.65,0,0,1,4.68,1.3,6,6,0,0,1,2.63,2.1A2.17,2.17,0,0,1,128.1,43.88Zm-41.33-7.3c-1,.14-2,.24-2.93.31a31,31,0,0,1-5.82,0,13.31,13.31,0,0,1-4.1-1.08,4.19,4.19,0,0,1-2-1.54,1.39,1.39,0,0,1,.14-1.41,6.36,6.36,0,0,1,2.29-2.09Z"/></svg>