<?xml version="1.0" encoding="UTF-8"?>
<svg id="a0d803f3-209d-4dd6-8bab-107917edeff8" xmlns="http://www.w3.org/2000/svg" xmlns:xlink="http://www.w3.org/1999/xlink" viewBox="0 0 500 500">
  <defs>
    <style>
      .cls-1 {
        fill: url(#linear-gradient-2);
      }

      .cls-2 {
        fill: url(#linear-gradient);
      }
    </style>
    <linearGradient id="linear-gradient" x1="525.67" y1="40.71" x2="-86.85" y2="795.08" gradientTransform="translate(0 501.03) scale(1 -1)" gradientUnits="userSpaceOnUse">
      <stop offset=".15" stop-color="#b32eff"/>
      <stop offset=".42" stop-color="#ce60d3"/>
      <stop offset=".65" stop-color="#e185b3"/>
      <stop offset=".84" stop-color="#ee9c9f"/>
      <stop offset=".96" stop-color="#f2a498"/>
    </linearGradient>
    <linearGradient id="linear-gradient-2" x1="-794.74" y1="-4232.87" x2="-1407.28" y2="-3478.48" gradientTransform="translate(-820.49 4271.81) rotate(-180) scale(1 -1)" gradientUnits="userSpaceOnUse">
      <stop offset=".15" stop-color="#b32eff"/>
      <stop offset=".42" stop-color="#ce60d3"/>
      <stop offset=".65" stop-color="#e185b3"/>
      <stop offset=".84" stop-color="#ee9c9f"/>
      <stop offset=".96" stop-color="#f2a498"/>
    </linearGradient>
  </defs>
  <path class="cls-2" d="M491.05,166.22L386.58,14.24c-16.41-23.82-53.51-11.17-52.3,17.76,1.11,26.38,10.97,54.3,34.56,88.57,.03,.05,.01,.11-.04,.14-.03,.02-.07,.02-.1,0-9.65-7.2-155.17-116.48-328.15-58.29h-.2c-19.09,7.16-28.84,22.77-24,41.08,4.47,16.95,21.86,27.13,39.14,24.26,36.74-6.12,73.21-9.03,109.07-5.88,35.86,3.15,70.94,12.34,103.6,28.38,32.66,16.05,62.25,38.76,89.44,64.77,30.58,29.23,68.53,91.56,68.53,91.56,4.59,8.15,14.39,11.82,23.2,8.69,10.28-3.68,15.07-15.53,11.21-25.7-8.06-21.25-17.93-41.78-29.49-61.34-.04-.04-.03-.11,0-.15,.04-.03,.09-.04,.13,0,12.79,4.81,24.62,10.8,38.62,7.53,11.42-2.68,21.45-10.46,26.1-21.33,6.86-15.77,5.02-33.98-4.85-48.06Z"/>
  <path class="cls-1" d="M8.91,333.01l105.06,152.83c16.45,23.89,52.86,10.79,51.74-18.18-1.03-26.5-10.87-54.54-34.57-88.98-.07-.1,0-.24,.12-.16,9.67,7.2,155.24,116.47,328.14,58.29,.07,0,.14,0,.21,0,19.09-7.13,28.79-22.72,23.99-41.05-4.46-16.94-21.85-27.12-39.12-24.24-36.75,6.17-73.21,9.02-109.08,5.87s-70.94-12.34-103.59-28.37c-32.65-16.04-62.25-38.77-89.44-64.77-30.57-29.23-68.53-91.56-68.53-91.56-4.76-8.5-15.13-12.08-24.13-8.35-9.79,4.11-13.97,15.68-10.22,25.59,8.05,21.18,17.89,41.64,29.42,61.15,.03,.05,.01,.12-.04,.15-.03,.02-.06,.02-.09,0-12.79-4.81-24.67-10.8-38.62-7.53-11.42,2.63-21.46,10.44-26.07,21.29-6.84,15.75-5.02,33.92,4.81,48Z"/>
</svg>