<?xml version="1.0" encoding="UTF-8"?>
<svg id="Layer_1" data-name="Layer 1" xmlns="http://www.w3.org/2000/svg" viewBox="0 0 500 500">
  <defs>
    <style>
      .cls-1 {
        fill: #fff;
      }

      .cls-2 {
        fill: #9c8ef4;
      }

      .cls-3 {
        fill: #fffeff;
      }

      .cls-4 {
        fill: #624ced;
      }
    </style>
  </defs>
  <path class="cls-4" d="m235.17.21c9.47,0,18.95,0,28.42,0,.47.35.92.96,1.43,1.01,8.23.93,16.49,1.66,24.7,2.69,11.67,1.47,23.02,4.45,34.25,7.9,14.75,4.53,29.02,10.31,42.61,17.59,10.75,5.76,21.27,11.98,30.86,19.6,7.44,5.92,15.03,11.68,22.11,18.01,5.58,4.99,10.59,10.65,15.66,16.18,4.31,4.7,8.78,9.36,12.42,14.56,6.87,9.83,13.35,19.96,19.72,30.12,7.04,11.22,12.22,23.38,16.71,35.78,5.17,14.27,9.64,28.79,11.65,43.91,1.19,8.98,2.09,18,3.19,27,.08.68.67,1.3,1.02,1.95v27.37c-.35.47-.96.92-1.01,1.43-.93,8.24-1.31,16.58-2.78,24.72-2,11.04-4.34,22.07-7.42,32.84-3.44,12.01-7.7,23.82-13.6,34.9-4.95,9.31-9.91,18.64-15.49,27.57-4.63,7.4-10,14.36-15.37,21.27-4.13,5.31-8.59,10.4-13.22,15.29-4.74,4.99-9.8,9.68-14.85,14.37-3.72,3.45-7.4,7.02-11.52,9.94-9.58,6.77-19.26,13.4-29.17,19.67-13.44,8.5-27.93,14.96-42.97,20.05-9.22,3.12-18.67,5.58-28.1,8.01-11.18,2.88-22.58,4.57-34.12,5.25-.49.03-.95.66-1.42,1.01h-38.42c-.56-.35-1.1-.95-1.68-1.01-2.85-.28-5.75-.17-8.56-.63-9.06-1.47-18.17-2.74-27.11-4.79-16.45-3.78-32.4-9.26-47.71-16.38-13.45-6.26-26.24-13.69-38.39-22.25-16.68-11.75-31.85-25.13-45.22-40.57-10.85-12.54-20.56-25.84-28.81-40.27-7.8-13.65-14.38-27.8-19.33-42.68-2.88-8.66-5.24-17.52-7.45-26.39-2.79-11.2-4.61-22.58-5.26-34.13-.03-.49-.66-.95-1.01-1.42,0-12.98,0-25.96,0-38.95.35-.38.96-.74,1.01-1.16.61-5.05.97-10.14,1.74-15.17,1.08-7.12,2.1-14.28,3.76-21.28,3.35-14.16,7.89-27.94,13.69-41.33,5.98-13.83,12.72-27.27,21.4-39.54,7.53-10.65,15.74-20.87,24.27-30.75,12.64-14.66,27.56-26.85,43.46-37.84,12.72-8.78,26.21-16.19,40.4-22.29,13.45-5.78,27.21-10.61,41.52-13.96,13.96-3.27,28.02-5.5,42.33-6.19.58-.03,1.12-.66,1.69-1.01ZM57.61,292.93c.33,2.44.47,4.92,1.03,7.31,2.14,9.2,6.45,17.33,12.45,24.62,7.32,8.89,16.25,15.39,27.2,19.07,10.32,3.47,20.82,4.13,31.48,2.07,12.12-2.34,22.75-7.61,31.53-16.39,46.95-46.95,93.87-93.93,140.89-140.81,5.51-5.49,12.32-7,19.95-4.62,3.63,1.14,6.37,3.46,8.95,5.96,6.67,6.48,13.11,13.19,19.78,19.66,3.78,3.67,8.3,5.54,13.68,4.06,11.22-3.08,15.8-15.66,7.65-24.69-5.6-6.21-11.51-12.14-17.46-18.02-5.66-5.6-11.76-10.58-19.28-13.73-8.79-3.67-17.88-4.74-27.13-3.41-11.93,1.7-21.95,7.4-30.22,16.15-2.85,3.02-5.62,6.12-8.56,9.06-21.38,21.42-42.75,42.84-64.19,64.19-21.98,21.89-44.01,43.75-66.1,65.53-4.81,4.74-10.9,7.36-17.54,8.02-10.11,1-18.91-2.03-26.03-9.61-8.42-8.98-10.92-19.29-7.48-31.06,2.33-7.96,7.84-13.55,14.93-19.47,3.66,3.79,7.37,7.62,10.85,11.23v-45.05h-46.43c4.59,4.53,8.8,8.68,13.11,12.94-1.08,1.15-2.02,2.06-2.84,3.06-3.85,4.65-8.08,9.05-11.4,14.06-5.27,7.97-8.6,16.79-8.84,26.54-.19.59-.54,1.18-.55,1.77-.05,3.27-.05,6.53,0,9.8,0,.59.36,1.18.55,1.77Zm226.33-59.88c-7.09,7.16-14.09,14.22-21.34,21.53.45.37,1.26.92,1.94,1.6,24.62,24.48,49.26,48.95,73.82,73.48,10.54,10.53,23.34,16.14,38.02,17.33,11.15.91,21.9-1.18,31.91-6.29,7.35-3.75,14.22-8.28,19.1-15.12,3.44-4.81,7.18-9.58,9.57-14.91,4.71-10.5,6.1-21.65,4.58-33.18-1.25-9.47-4.14-18.39-9.71-26.03-4.78-6.56-10.64-12.32-16.09-18.38-.55-.61-1.52-.83-2.66-1.42,4.9-4.96,8.95-9.07,13.21-13.39h-45.73v45.82c3.53-3.54,6.78-6.68,9.88-9.96,1.52-1.62,2.64-1.53,4.09.05,1.71,1.87,3.68,3.51,5.42,5.36,4.71,5.01,9.35,9.96,11.33,16.94,3.99,14.08-1.31,27.07-12.47,34.99-12.89,9.15-28.94,7.03-38.62-2.45-23.36-22.89-46.32-46.19-69.45-69.32-2.29-2.29-4.62-4.53-6.8-6.66Zm-46.99-47.03c-6.22-6.21-12.5-12.68-19.02-18.89-4.8-4.58-10.35-8.25-16.6-10.46-8.99-3.18-18.32-4.09-27.75-2.21-9.06,1.81-17.26,5.27-23.91,12.09-7.88,8.08-16.15,15.78-24.13,23.76-3.84,3.84-7.1,7.91-6.79,14.02.33,6.41,3.53,10.63,8.95,13.13,5.24,2.41,10.49,1.37,15.07-2.04,2.43-1.81,4.58-4.01,6.75-6.15,7.47-7.4,14.81-14.94,22.36-22.26,3.33-3.23,7.83-4.29,12.23-4,6.56.44,11.69,3.93,16.14,8.77,5.01,5.45,10.43,10.53,15.46,15.56,7.14-7.16,14.12-14.16,21.25-21.31Z"/>
  <path class="cls-1" d="m57.61,279.6c.23-9.75,3.57-18.56,8.84-26.54,3.31-5.01,7.55-9.41,11.4-14.06.83-1,1.77-1.91,2.84-3.06-4.32-4.26-8.53-8.41-13.11-12.94h46.43v45.05c-3.49-3.61-7.19-7.44-10.85-11.23-7.09,5.93-12.6,11.52-14.93,19.47-3.44,11.77-.94,22.08,7.48,31.06,7.11,7.58,15.91,10.61,26.03,9.61,6.64-.65,12.73-3.28,17.54-8.02,22.09-21.79,44.11-43.64,66.1-65.53,21.44-21.35,42.81-42.77,64.19-64.19,2.93-2.94,5.7-6.04,8.56-9.06,8.28-8.75,18.3-14.45,30.22-16.15,9.25-1.32,18.34-.26,27.13,3.41,7.52,3.14,13.62,8.13,19.28,13.73,5.95,5.88,11.86,11.81,17.46,18.02,8.15,9.03,3.56,21.62-7.65,24.69-5.38,1.48-9.9-.39-13.68-4.06-6.67-6.48-13.11-13.19-19.78-19.66-2.58-2.51-5.32-4.83-8.95-5.96-7.63-2.39-14.44-.88-19.95,4.62-47.02,46.87-93.94,93.86-140.89,140.81-8.78,8.78-19.4,14.05-31.53,16.39-10.67,2.06-21.17,1.4-31.48-2.07-10.95-3.68-19.88-10.18-27.2-19.07-6-7.29-10.31-15.42-12.45-24.62-.56-2.39-.7-4.87-1.03-7.31v-13.33Z"/>
  <path class="cls-1" d="m283.94,233.05c2.18,2.13,4.51,4.37,6.8,6.66,23.13,23.13,46.09,46.42,69.45,69.32,9.68,9.48,25.73,11.6,38.62,2.45,11.16-7.92,16.46-20.91,12.47-34.99-1.98-6.98-6.62-11.93-11.33-16.94-1.74-1.85-3.71-3.49-5.42-5.36-1.45-1.58-2.56-1.67-4.09-.05-3.1,3.28-6.35,6.42-9.88,9.96v-45.82h45.73c-4.26,4.32-8.31,8.42-13.21,13.39,1.13.59,2.11.81,2.66,1.42,5.45,6.06,11.31,11.82,16.09,18.38,5.57,7.64,8.46,16.56,9.71,26.03,1.52,11.53.13,22.69-4.58,33.18-2.39,5.33-6.13,10.11-9.57,14.91-4.89,6.83-11.76,11.37-19.1,15.12-10.01,5.11-20.76,7.2-31.91,6.29-14.67-1.2-27.47-6.8-38.02-17.33-24.57-24.54-49.2-49-73.82-73.48-.68-.68-1.49-1.23-1.94-1.6,7.25-7.32,14.24-14.37,21.34-21.53Z"/>
  <path class="cls-3" d="m236.95,186.02c-7.12,7.15-14.11,14.15-21.25,21.31-5.03-5.03-10.44-10.11-15.46-15.56-4.45-4.84-9.59-8.33-16.14-8.77-4.4-.29-8.89.77-12.23,4-7.55,7.32-14.89,14.86-22.36,22.26-2.16,2.14-4.32,4.34-6.75,6.15-4.58,3.41-9.82,4.45-15.07,2.04-5.42-2.49-8.63-6.71-8.95-13.13-.31-6.12,2.95-10.19,6.79-14.02,7.98-7.98,16.25-15.68,24.13-23.76,6.65-6.82,14.85-10.28,23.91-12.09,9.43-1.88,18.76-.97,27.75,2.21,6.25,2.21,11.8,5.89,16.6,10.46,6.52,6.22,12.8,12.69,19.02,18.89Z"/>
  <path class="cls-2" d="m57.61,279.6v13.33c-.19-.59-.54-1.18-.55-1.77-.05-3.27-.05-6.53,0-9.8,0-.59.36-1.18.55-1.77Z"/>
</svg>