<?xml version="1.0" encoding="UTF-8"?>
<svg id="Layer_1" data-name="Layer 1" xmlns="http://www.w3.org/2000/svg" xmlns:xlink="http://www.w3.org/1999/xlink" viewBox="0 0 500 500">
  <defs>
    <style>
      .cls-1 {
        clip-path: url(#clippath-2);
      }

      .cls-2 {
        clip-path: url(#clippath-1);
      }

      .cls-3 {
        clip-path: url(#clippath);
      }

      .cls-4 {
        fill: none;
      }

      .cls-5 {
        fill: #999;
      }
    </style>
    <clipPath id="clippath">
      <rect class="cls-4" x="9.13" y=".21" width="486.65" height="500"/>
    </clipPath>
    <clipPath id="clippath-1">
      <rect class="cls-4" y="0" width="500" height="500"/>
    </clipPath>
    <clipPath id="clippath-2">
      <rect class="cls-4" y="0" width="500" height="500"/>
    </clipPath>
  </defs>
  <g class="cls-3">
    <g class="cls-2">
      <g>
        <g class="cls-1">
          <path class="cls-5" d="m299.61,19.9l13.31,31.16c26.12,61.19,74.86,109.93,136.05,136.05l31.16,13.31c8.16,3.48,14.78,8.46,19.9,14.4C484.52,103.53,396.5,15.51,285.21,0c5.93,5.1,10.92,11.73,14.4,19.9ZM19.9,200.42l31.16-13.31c61.19-26.12,109.94-74.86,136.06-136.05l13.29-31.16C203.63,12.25,208.56,5.44,214.82,0,103.53,15.51,15.51,103.53,0,214.82c5.1-5.94,11.73-10.92,19.9-14.4Zm460.25,99.17l-31.18,13.31c-61.19,26.12-109.93,74.87-136.05,136.06l-13.31,31.15c-3.21,7.66-8.14,14.47-14.4,19.91,111.29-15.53,199.31-103.55,214.82-214.84-5.43,6.27-12.24,11.2-19.9,14.4h.01Zm-279.73,180.52l-13.29-31.15c-26.12-61.19-74.87-109.94-136.06-136.06l-31.16-13.31c-7.65-3.21-14.46-8.13-19.9-14.4,15.51,111.29,103.53,199.31,214.82,214.84-6.26-5.45-11.19-12.26-14.4-19.91Z"/>
        </g>
        <path d="m136.59,225.56l15.35-6.56c30.16-12.87,54.18-36.89,67.06-67.04l6.54-15.36c9.18-21.5,39.69-21.5,48.87,0l6.54,15.36c12.88,30.15,36.9,54.17,67.06,67.04l15.36,6.56c21.5,9.18,21.5,39.67,0,48.86l-15.36,6.56c-30.16,12.87-54.18,36.89-67.06,67.06l-6.54,15.35c-9.18,21.5-39.69,21.5-48.87,0l-6.54-15.35c-12.87-30.16-36.89-54.18-67.06-67.06l-15.35-6.56c-21.52-9.18-21.52-39.67,0-48.86Z"/>
      </g>
    </g>
  </g>
</svg>