<svg width="320" height="320" viewBox="0 0 320 320" fill="none" xmlns="http://www.w3.org/2000/svg">
<path d="M320 159.997C320 202.433 303.143 243.13 273.136 273.136C243.13 303.143 202.433 320 159.997 320C117.564 319.999 76.8687 303.141 46.8637 273.136C16.8587 243.131 0.00145972 202.436 0 160.003C-2.51088e-08 117.568 16.8567 76.8719 46.8618 46.8657C76.8669 16.8595 117.563 0.00145978 159.997 0C202.432 -2.51088e-08 243.128 16.8566 273.134 46.8618C303.141 76.8669 319.999 117.563 320 159.997Z" fill="#111C23"/>
<path d="M181.882 261.374C180.661 261.375 179.479 260.946 178.541 260.163C177.955 259.674 177.484 259.062 177.161 258.37C176.837 257.679 176.67 256.925 176.67 256.161V213.129C176.671 211.908 177.1 210.726 177.882 209.789C178.665 208.852 179.751 208.218 180.952 207.999C192.775 205.834 203.674 200.163 212.233 191.723C213.923 190.038 215.493 188.238 216.933 186.335C201.973 171.429 184.756 177.853 164.819 185.283L158.831 187.485C138.465 195.081 115.347 203.69 95.6474 183.984C89.3039 177.501 85.3218 169.075 84.3396 160.058C83.3575 151.041 85.4323 141.956 90.2312 134.259C79.509 117.576 83.1803 95.0744 100.403 77.8461C110.464 67.9131 123.282 61.2371 137.188 58.6859C137.939 58.549 138.711 58.5791 139.449 58.7741C140.188 58.9691 140.874 59.3242 141.459 59.8142C142.045 60.3033 142.517 60.9152 142.84 61.6067C143.164 62.2983 143.331 63.0524 143.331 63.8158V106.897C143.33 108.118 142.902 109.299 142.121 110.236C141.339 111.174 140.254 111.807 139.054 112.027C127.231 114.193 116.332 119.864 107.773 128.303C106.085 129.99 104.514 131.79 103.073 133.692C118.033 148.592 135.25 142.174 155.187 134.738L161.175 132.536C181.541 124.935 204.659 116.326 224.359 136.037C228.385 140.03 231.48 144.864 233.421 150.193C235.362 155.521 236.102 161.213 235.587 166.861C234.985 173.481 232.997 179.9 229.753 185.702C240.497 202.363 236.842 224.892 219.581 242.131C209.524 252.061 196.713 258.737 182.813 261.291C182.504 261.348 182.191 261.375 181.877 261.374H181.882ZM187.089 217.34V249.562C196.568 246.797 205.207 241.709 212.222 234.761C224.331 222.652 228.157 207.443 223.049 195.362C221.948 196.642 220.797 197.892 219.597 199.11C210.607 208.001 199.38 214.298 187.106 217.335L187.089 217.34ZM97.662 142.901C94.9704 148.39 94.0398 154.577 94.9975 160.615C95.9551 166.654 98.7542 172.249 103.012 176.636C117.984 191.608 135.217 185.179 155.176 177.737L161.164 175.535C180.853 168.198 203.079 159.914 222.333 177.132C223.878 173.602 224.839 169.845 225.179 166.008C225.562 161.866 225.026 157.69 223.607 153.78C222.188 149.87 219.922 146.322 216.972 143.391C202 128.419 184.767 134.848 164.808 142.29L158.82 144.491C139.136 151.829 116.91 160.118 97.6565 142.906L97.662 142.901ZM132.884 70.4539C123.406 73.2205 114.767 78.3077 107.751 85.2548C95.6419 97.3642 91.8164 112.567 96.9189 124.643C98.0197 123.374 99.1738 122.126 100.381 120.9C109.373 112.003 120.604 105.704 132.884 102.67V70.4539Z" fill="#00FFB9"/>
</svg>
